<?xml version="1.0" standalone="no"?>
<!DOCTYPE svg PUBLIC "-//W3C//DTD SVG 20010904//EN"
 "http://www.w3.org/TR/2001/REC-SVG-20010904/DTD/svg10.dtd">
<svg version="1.0" xmlns="http://www.w3.org/2000/svg"
 width="400.000000pt" height="400.000000pt" viewBox="0 0 400.000000 400.000000"
 preserveAspectRatio="xMidYMid meet">
<metadata>
Created by potrace 1.14, written by Peter Selinger 2001-2017
</metadata>
<g transform="translate(0.000000,400.000000) scale(0.100000,-0.100000)"
fill="#000000" stroke="none">
<path d="M1802 3955 c0 -16 2 -22 5 -12 2 9 2 23 0 30 -3 6 -5 -1 -5 -18z"/>
<path d="M1560 3946 c0 -3 17 -14 38 -26 24 -13 51 -42 70 -73 38 -63 144
-285 176 -370 34 -88 77 -179 83 -174 2 3 -7 27 -21 54 -13 27 -41 91 -61 142
-51 129 -168 361 -197 393 -24 24 -88 64 -88 54z"/>
<path d="M1893 3766 c36 -46 93 -125 128 -177 34 -51 76 -112 93 -135 17 -22
51 -69 75 -103 24 -33 49 -61 54 -61 6 0 -1 12 -15 28 -26 28 -143 189 -218
302 -50 74 -169 230 -177 230 -2 0 25 -38 60 -84z"/>
<path d="M2383 3310 c-78 -11 -103 -19 -103 -31 0 -7 7 -8 18 -4 28 11 224 33
246 27 13 -3 17 -1 12 6 -8 13 -90 14 -173 2z"/>
<path d="M1931 3288 c-1 -3 14 -42 33 -86 19 -44 33 -87 33 -97 -1 -10 3 -20
9 -22 7 -2 12 7 12 22 0 14 10 37 22 51 13 13 19 24 13 24 -6 0 -16 -7 -23
-15 -21 -25 -29 -18 -64 58 -19 39 -35 69 -35 65z"/>
<path d="M2630 3276 c28 -17 50 -21 35 -7 -6 5 -21 12 -35 15 l-25 7 25 -15z"/>
<path d="M2351 3259 c-18 -11 -31 -23 -27 -26 7 -7 94 25 101 38 11 17 -40 9
-74 -12z"/>
<path d="M2165 3256 c-16 -7 -41 -25 -54 -40 -34 -36 -19 -33 17 4 21 21 40
30 62 30 18 0 29 4 25 10 -8 13 -13 12 -50 -4z"/>
<path d="M2425 3224 c-8 -9 -22 -13 -30 -10 -9 3 -12 0 -8 -10 3 -7 0 -14 -7
-14 -6 0 -18 -7 -26 -15 -18 -18 -4 -20 16 -2 8 6 4 0 -9 -15 -29 -33 -22 -46
15 -29 29 13 40 9 29 -9 -4 -6 -13 -9 -21 -6 -8 3 -11 0 -7 -10 12 -31 59 2
48 35 -3 11 0 23 6 27 7 4 9 3 6 -2 -3 -6 8 -16 24 -23 26 -12 32 -10 59 13
17 14 46 28 65 32 36 6 46 21 22 30 -12 4 -45 -5 -112 -31 -17 -7 -16 -5 4 13
l24 22 -22 0 c-12 0 -19 4 -16 10 9 14 -18 12 -34 -2 -11 -10 -13 -10 -7 0 10
17 1 15 -19 -4z"/>
<path d="M2750 3227 c0 -2 15 -14 33 -27 l32 -23 -24 26 c-21 23 -41 35 -41
24z"/>
<path d="M2613 3151 c-38 -28 -41 -32 -41 -80 0 -28 4 -48 9 -45 5 3 7 10 3
15 -3 6 2 19 12 30 16 18 16 19 -1 19 -12 0 2 16 39 45 41 32 53 45 39 45 -11
0 -38 -13 -60 -29z"/>
<path d="M2177 3145 c-15 -14 -24 -25 -20 -25 4 0 1 -5 -9 -10 -19 -12 -14
-48 11 -68 12 -10 13 -16 4 -31 -9 -14 -8 -22 5 -35 15 -15 15 -16 -3 -17 -11
0 -14 -3 -7 -6 6 -2 10 -8 7 -12 -2 -5 8 -8 23 -9 28 -1 28 1 29 61 1 34 4 76
7 92 6 29 5 29 -4 -2 -7 -23 -17 -33 -30 -33 -25 0 -25 4 1 57 11 24 27 43 35
43 8 0 14 5 14 10 0 18 -35 10 -63 -15z"/>
<path d="M2545 3160 c-3 -6 1 -7 9 -4 18 7 21 14 7 14 -6 0 -13 -4 -16 -10z"/>
<path d="M2087 3133 c-9 -2 -15 -9 -12 -14 4 -5 2 -9 -2 -9 -14 0 -45 -60 -40
-74 3 -8 1 -18 -4 -23 -6 -6 -5 -21 4 -41 7 -18 17 -29 21 -25 4 4 4 0 0 -10
-8 -21 3 -67 16 -67 6 0 10 10 10 23 0 12 7 32 15 44 15 22 5 41 -15 28 -5 -3
-9 9 -8 29 1 19 5 33 10 30 13 -8 10 10 -4 25 -11 10 -6 18 21 41 18 16 30 33
27 39 -7 11 -10 12 -39 4z"/>
<path d="M2533 3133 c4 -3 7 -14 7 -24 0 -12 -4 -17 -11 -13 -6 3 -16 0 -21
-7 -7 -11 -11 -11 -15 -1 -2 6 -11 12 -19 12 -8 0 -14 7 -14 15 0 8 -4 15 -9
15 -6 0 -6 -12 -1 -30 5 -18 5 -30 -1 -30 -5 0 -9 6 -10 13 -1 6 -4 1 -8 -13
-4 -14 -5 -34 -2 -45 4 -18 6 -18 12 5 5 16 7 4 6 -34 -3 -80 17 -84 33 -6 13
63 29 87 31 48 1 -16 4 -12 9 12 5 25 8 28 9 12 1 -20 3 -21 15 -10 14 15 27
78 15 78 -4 0 -13 2 -21 3 -7 2 -10 2 -5 0z"/>
<path d="M2776 3113 c-3 -3 -6 -22 -7 -42 0 -20 -3 -30 -6 -23 -2 6 -11 12
-19 12 -9 0 -12 4 -9 10 3 6 -1 7 -9 4 -9 -3 -16 -15 -16 -26 0 -28 -28 -78
-44 -78 -8 0 -18 -19 -24 -43 -12 -44 -44 -87 -66 -87 -7 0 -18 -11 -24 -25
-6 -14 -16 -25 -22 -25 -5 0 -10 -4 -10 -10 0 -11 39 -13 64 -4 9 3 16 12 16
20 0 8 6 14 14 14 8 0 18 5 22 12 5 7 3 8 -7 3 -10 -6 -10 -3 2 11 9 10 22 35
29 54 7 19 21 44 30 55 10 11 23 29 29 40 10 17 12 13 8 -28 -3 -26 -1 -50 4
-53 11 -6 29 38 29 70 0 13 9 33 20 46 11 13 20 37 20 56 0 32 -11 50 -24 37z"/>
<path d="M2850 3114 c8 -3 34 -14 58 -26 24 -11 46 -18 49 -15 8 9 -74 47 -99
46 -14 0 -17 -3 -8 -5z"/>
<path d="M2657 3083 c-10 -10 -25 -18 -34 -18 -9 0 -18 -7 -20 -15 -4 -13 -3
-13 6 0 5 8 14 11 18 6 4 -4 -1 -15 -12 -24 -15 -13 -19 -25 -15 -46 6 -35 24
-37 28 -2 2 13 19 42 38 64 18 22 34 43 34 46 0 12 -26 5 -43 -11z"/>
<path d="M2360 3081 c0 -5 -3 -18 -6 -28 -5 -15 -4 -16 5 -3 9 13 11 12 9 -5
-3 -39 2 -55 17 -55 8 0 15 6 15 14 0 7 3 28 7 46 5 28 4 32 -10 27 -10 -4
-17 -2 -17 3 0 6 -4 10 -10 10 -5 0 -10 -4 -10 -9z"/>
<path d="M1987 3073 c-4 -3 -7 -49 -7 -100 0 -92 16 -153 40 -153 6 0 3 11 -6
25 -13 19 -15 45 -13 124 4 95 0 119 -14 104z"/>
<path d="M2900 3040 c12 -16 16 -30 10 -30 -7 0 -10 -19 -8 -52 3 -60 21 -72
26 -18 2 19 9 38 15 42 12 7 -36 88 -54 88 -6 0 -1 -13 11 -30z"/>
<path d="M2309 3060 c-7 -31 -7 -110 -1 -110 28 0 38 78 14 102 -7 7 -12 10
-13 8z"/>
<path d="M3008 3015 c48 -55 72 -104 71 -144 l-1 -26 -10 28 c-14 40 -29 33
-22 -11 4 -28 0 -50 -15 -82 -11 -24 -19 -46 -16 -48 9 -10 34 21 46 56 6 20
18 41 25 45 43 25 -13 148 -94 211 -17 13 -11 2 16 -29z"/>
<path d="M2850 3029 c0 -6 -9 -24 -20 -39 -14 -19 -17 -31 -9 -35 6 -4 17 3
26 15 9 12 21 19 30 16 11 -5 13 -2 9 10 -3 8 -6 22 -6 30 0 8 -7 14 -15 14
-8 0 -15 -5 -15 -11z"/>
<path d="M2340 3010 c0 -5 5 -10 10 -10 6 0 10 5 10 10 0 6 -4 10 -10 10 -5 0
-10 -4 -10 -10z"/>
<path d="M2782 2990 c0 -14 2 -19 5 -12 2 6 2 18 0 25 -3 6 -5 1 -5 -13z"/>
<path d="M2410 2971 c0 -6 4 -13 10 -16 6 -3 7 1 4 9 -7 18 -14 21 -14 7z"/>
<path d="M2984 2945 c9 -13 16 -43 16 -65 0 -25 4 -39 10 -35 24 15 -3 125
-31 125 -7 0 -5 -10 5 -25z"/>
<path d="M2840 2912 c0 -11 -14 -38 -30 -60 -21 -30 -26 -42 -15 -42 8 0 26
17 40 37 25 38 34 83 15 83 -5 0 -10 -8 -10 -18z"/>
<path d="M2114 2896 c-6 -27 12 -70 26 -61 6 4 5 14 -3 26 -10 17 -9 22 6 30
19 11 14 29 -8 29 -8 0 -17 -11 -21 -24z"/>
<path d="M2184 2899 c4 -32 35 -103 42 -97 8 8 -17 90 -32 107 -10 11 -12 10
-10 -10z"/>
<path d="M2300 2863 c0 -35 49 -133 67 -133 17 0 16 5 -3 35 -9 13 -21 46 -28
72 -14 53 -36 70 -36 26z"/>
<path d="M2913 2864 c-6 -14 -7 -24 -2 -24 15 0 6 -52 -14 -81 -10 -15 -30
-32 -45 -38 -15 -6 -33 -21 -41 -32 -8 -15 -9 -19 -1 -14 9 5 10 1 5 -15 -6
-19 -4 -21 13 -16 12 4 24 2 28 -5 5 -9 2 -10 -10 -6 -13 5 -19 1 -23 -14 -4
-13 -11 -18 -21 -14 -12 4 -13 3 -2 -10 12 -14 7 -19 -13 -16 -5 1 -6 -3 -2
-9 8 -13 -36 -30 -76 -30 -20 0 -29 -4 -26 -12 2 -8 24 -13 59 -13 31 0 54 3
51 8 -2 4 2 10 11 13 8 3 22 17 31 31 13 19 14 27 4 39 -7 8 -7 14 -1 14 15 0
24 -31 12 -45 -8 -9 -8 -15 0 -20 5 -3 10 -1 10 5 0 6 4 8 10 5 6 -4 7 1 3 11
-4 11 -2 15 4 11 5 -4 21 5 34 20 18 19 20 25 7 20 -10 -3 -20 -1 -24 6 -4 7
-4 9 1 5 4 -4 16 -3 26 3 23 12 25 54 4 63 -22 8 -19 37 3 29 9 -3 14 -3 10 2
-4 4 -1 20 8 36 15 30 11 69 -10 100 -10 15 -13 14 -23 -7z m-36 -173 c0 -11
-4 -18 -8 -15 -4 2 -9 -2 -12 -8 -2 -7 -8 -10 -12 -6 -5 5 0 17 10 28 22 25
24 25 22 1z m18 -81 c3 -5 -1 -10 -9 -10 -9 0 -16 5 -16 10 0 6 4 10 9 10 6 0
13 -4 16 -10z"/>
<path d="M2423 2853 c-4 -9 -7 -48 -7 -87 -1 -47 -5 -71 -13 -71 -6 0 -15 -4
-20 -9 -4 -5 18 -6 52 -3 67 6 95 -8 95 -50 0 -28 -64 -101 -105 -119 -26 -12
-27 -13 -8 -14 43 0 134 100 133 147 -1 30 -47 74 -81 76 l-31 2 4 73 c5 67
-4 93 -19 55z"/>
<path d="M2703 2850 c-3 -11 -9 -17 -14 -14 -5 3 -6 -3 -2 -12 5 -13 3 -16
-10 -11 -12 4 -17 1 -17 -11 0 -15 -2 -15 -11 -2 -9 12 -10 12 -5 -3 3 -10 6
-24 6 -30 1 -7 7 -1 15 13 8 14 14 21 15 17 0 -12 -32 -71 -43 -78 -20 -13 0
-32 38 -35 24 -1 33 1 25 6 -8 5 -17 7 -21 4 -4 -2 -5 5 -2 17 5 18 7 19 15 5
7 -13 12 -13 28 -4 11 7 15 15 9 18 -6 5 -7 27 0 66 5 32 7 62 4 67 -8 14 -25
7 -30 -13z"/>
<path d="M1983 2763 c-40 -49 -57 -73 -50 -73 8 0 99 112 94 116 -2 3 -22 -17
-44 -43z"/>
<path d="M2050 2802 c0 -15 40 -62 53 -62 6 0 1 7 -11 16 -12 8 -22 21 -22 29
0 8 -4 17 -10 20 -5 3 -10 2 -10 -3z"/>
<path d="M2208 2756 c9 -19 19 -32 21 -30 6 6 -21 64 -30 64 -5 0 -1 -15 9
-34z"/>
<path d="M2117 2759 c13 -12 56 -15 60 -4 1 6 -13 10 -32 11 -20 0 -32 -3 -28
-7z"/>
<path d="M2741 2754 c0 -11 3 -14 6 -6 3 7 2 16 -1 19 -3 4 -6 -2 -5 -13z"/>
<path d="M2241 2745 c0 -5 7 -26 14 -45 9 -23 14 -28 14 -15 0 11 -6 31 -14
45 -8 14 -14 21 -14 15z"/>
<path d="M2781 2734 c0 -11 3 -14 6 -6 3 7 2 16 -1 19 -3 4 -6 -2 -5 -13z"/>
<path d="M2720 2690 c0 -5 5 -10 11 -10 5 0 7 5 4 10 -3 6 -8 10 -11 10 -2 0
-4 -4 -4 -10z"/>
<path d="M2990 2638 c-73 -83 -77 -98 -10 -32 34 34 61 67 59 73 -2 6 -24 -13
-49 -41z"/>
<path d="M1920 2672 c0 -16 37 -52 53 -52 6 0 3 7 -8 16 -11 8 -26 22 -32 31
-7 9 -13 12 -13 5z"/>
<path d="M2496 2656 c13 -35 -52 -110 -85 -99 -13 5 -14 3 -4 -7 18 -19 58 1
83 42 21 35 27 78 10 78 -5 0 -7 -6 -4 -14z"/>
<path d="M2755 2659 c-8 -11 22 -38 43 -39 6 0 12 5 12 11 0 6 -7 9 -15 5 -9
-3 -15 0 -15 9 0 18 -17 28 -25 14z"/>
<path d="M2310 2648 c0 -11 38 -10 44 1 3 5 -5 8 -19 7 -14 0 -25 -4 -25 -8z"/>
<path d="M2447 2620 c-3 -11 -1 -20 4 -20 5 0 9 9 9 20 0 11 -2 20 -4 20 -2 0
-6 -9 -9 -20z"/>
<path d="M2730 2630 c0 -6 -12 -22 -27 -35 -38 -32 -24 -41 18 -12 35 23 44
47 22 55 -7 2 -13 -1 -13 -8z"/>
<path d="M2416 2615 c-9 -26 -7 -32 5 -12 6 10 9 21 6 23 -2 3 -7 -2 -11 -11z"/>
<path d="M2556 2614 c-10 -26 -7 -85 8 -147 16 -67 56 -117 94 -117 14 0 31
-8 39 -17 9 -12 13 -13 11 -4 -2 8 -19 26 -38 40 -26 20 -32 22 -27 9 3 -10 3
-18 -2 -18 -15 0 -49 45 -55 75 -20 89 -26 133 -21 163 6 34 1 43 -9 16z"/>
<path d="M1982 2550 c0 -14 2 -19 5 -12 2 6 2 18 0 25 -3 6 -5 1 -5 -13z"/>
<path d="M2000 2507 c0 -3 16 -15 35 -27 39 -24 43 -45 19 -91 -8 -17 -13 -33
-10 -36 3 -3 15 14 25 38 17 37 18 47 7 64 -13 19 -76 62 -76 52z"/>
<path d="M2750 2499 c-8 -5 -28 -14 -43 -19 -16 -5 -25 -14 -22 -20 3 -5 1
-10 -4 -10 -6 0 -11 -4 -11 -10 0 -5 18 -10 39 -10 34 0 42 5 59 34 17 29 18
34 5 29 -11 -4 -14 -2 -9 5 8 14 6 14 -14 1z"/>
<path d="M2637 2445 c-4 -8 -2 -17 3 -20 6 -4 10 3 10 14 0 25 -6 27 -13 6z"/>
<path d="M2934 2423 c22 -24 48 -45 58 -49 34 -10 18 -23 -34 -27 -41 -2 -36
-4 26 -5 l79 -2 45 -46 c24 -26 39 -38 34 -28 -19 34 -50 61 -109 94 -32 18
-76 49 -98 69 l-40 36 39 -42z"/>
<path d="M2289 2385 c-12 -25 -42 -69 -67 -98 -30 -34 -35 -42 -13 -22 49 45
91 101 101 135 12 43 3 37 -21 -15z"/>
<path d="M2779 2383 c-13 -16 -12 -17 4 -4 16 13 21 21 13 21 -2 0 -10 -8 -17
-17z"/>
<path d="M2850 2364 c0 -4 9 -18 21 -30 14 -15 19 -29 14 -43 -8 -25 -113
-123 -219 -204 -44 -33 -96 -77 -115 -97 -38 -38 -134 -183 -107 -161 9 7 25
29 37 47 25 40 113 103 182 129 43 16 55 17 120 5 40 -7 99 -27 132 -44 59
-31 157 -119 207 -186 25 -34 148 -308 148 -330 0 -6 9 -28 20 -50 11 -22 20
-55 20 -75 0 -22 4 -34 10 -30 15 9 12 77 -9 204 -15 90 -29 133 -64 205 -77
159 -218 324 -312 365 -69 30 -185 55 -198 42 -8 -8 -4 -11 15 -11 33 0 136
-26 185 -47 40 -16 139 -114 209 -207 50 -66 115 -198 132 -266 36 -151 41
-232 7 -128 -10 29 -23 67 -30 83 -7 17 -32 73 -54 125 -41 94 -153 254 -188
267 -9 3 -38 21 -65 39 -27 19 -68 39 -91 45 -23 6 -51 15 -62 20 -12 6 -13 8
-2 5 9 -3 17 -1 17 4 0 6 -5 10 -11 10 -5 0 -8 4 -5 9 3 5 -1 12 -10 15 -22 9
-64 -4 -64 -19 0 -8 -17 -19 -37 -26 -21 -6 -62 -27 -92 -46 -29 -19 -55 -32
-57 -30 -6 6 67 70 159 140 95 73 193 169 202 196 4 15 -1 30 -19 52 -14 17
-26 27 -26 23z"/>
<path d="M2761 2349 c-1 -16 -41 -59 -41 -44 0 4 -8 -2 -17 -12 -10 -11 -66
-61 -124 -111 -59 -50 -125 -111 -149 -136 -45 -47 -124 -156 -118 -162 3 -2
27 30 56 71 54 78 301 308 364 339 18 8 44 25 58 37 21 17 22 19 3 10 -18 -9
-22 -8 -26 7 -4 14 -5 14 -6 1z"/>
<path d="M1920 2334 l-45 -14 40 6 c22 3 47 10 55 15 21 12 3 10 -50 -7z"/>
<path d="M2013 2318 c39 -64 50 -78 58 -78 5 0 -7 21 -27 48 -43 56 -54 67
-31 30z"/>
<path d="M1836 2268 c-28 -34 -33 -45 -22 -53 7 -6 22 -28 34 -51 30 -59 43
-67 89 -55 21 6 45 16 53 22 12 9 11 10 -5 4 -51 -18 -77 -24 -89 -19 -7 3
-26 30 -44 60 -30 53 -31 56 -16 80 9 13 24 29 33 33 9 5 13 12 10 16 -4 3
-23 -13 -43 -37z"/>
<path d="M1911 2245 c12 -27 31 -58 43 -67 35 -29 40 -20 7 11 -17 16 -31 35
-31 43 0 7 -9 24 -20 38 -19 24 -19 23 1 -25z"/>
<path d="M3055 2250 c10 -11 20 -20 23 -20 3 0 -3 9 -13 20 -10 11 -20 20 -23
20 -3 0 3 -9 13 -20z"/>
<path d="M2391 2218 c6 -12 15 -33 20 -47 5 -17 8 -20 8 -8 1 18 -25 77 -35
77 -2 0 1 -10 7 -22z"/>
<path d="M1698 2133 c-42 -38 -77 -72 -77 -77 -1 -5 20 11 47 35 26 24 65 59
87 77 22 17 35 32 30 32 -6 0 -45 -30 -87 -67z"/>
<path d="M2025 2179 c-4 -6 -5 -12 -2 -15 2 -3 7 2 10 11 7 17 1 20 -8 4z"/>
<path d="M2092 2170 c15 -23 22 -25 81 -24 36 1 73 7 84 14 15 9 12 10 -17 5
-109 -19 -116 -18 -140 6 l-24 24 16 -25z"/>
<path d="M2935 2170 c10 -11 20 -20 23 -20 3 0 -3 9 -13 20 -10 11 -20 20 -23
20 -3 0 3 -9 13 -20z"/>
<path d="M2340 2105 c18 -19 36 -32 39 -30 6 7 -50 65 -63 65 -5 0 5 -16 24
-35z"/>
<path d="M3201 2100 c0 -8 4 -22 9 -30 12 -18 12 -2 0 25 -6 13 -9 15 -9 5z"/>
<path d="M1764 2041 c-29 -15 -65 -38 -82 -50 l-31 -22 -16 31 c-8 16 -20 30
-26 30 -5 0 -3 -13 6 -30 16 -31 20 -60 7 -60 -4 0 -12 10 -17 22 -6 13 -21
28 -34 34 -22 11 -22 12 -5 22 11 6 16 13 13 17 -4 3 -35 -17 -70 -45 -35 -29
-80 -60 -100 -70 -20 -11 -49 -33 -65 -50 -16 -17 -42 -37 -59 -44 -33 -15
-315 -289 -315 -307 0 -12 154 130 156 143 1 5 2 11 3 14 0 4 7 1 15 -5 10 -8
22 -7 49 4 20 8 46 15 57 15 11 0 20 4 20 9 0 5 -16 5 -37 -1 -75 -19 -83 -20
-83 -14 0 4 18 24 40 45 l40 38 27 -29 27 -28 45 45 c46 46 53 50 131 93 50
28 83 23 56 -7 -11 -12 -15 -27 -11 -44 5 -19 2 -28 -14 -37 -12 -6 -21 -17
-21 -25 0 -8 -8 -15 -17 -16 -10 0 -43 -17 -74 -37 -176 -115 -249 -166 -245
-169 5 -6 85 45 188 120 43 30 98 63 122 72 26 10 46 25 49 36 3 12 14 19 29
19 14 0 41 16 67 41 40 38 43 45 37 79 -5 30 -1 42 18 63 30 33 130 97 176
114 22 7 27 12 15 12 -11 1 -43 -12 -71 -28z m-236 -86 c-8 -18 -8 -28 1 -39
10 -12 8 -17 -8 -25 -14 -8 -22 -8 -26 0 -8 12 2 59 17 76 18 22 28 14 16 -12z
m-48 -47 c0 -28 -6 -37 -40 -55 -48 -28 -66 -29 -80 -3 -11 21 -13 19 70 68
47 28 50 27 50 -10z m137 -44 c-9 -9 -28 6 -21 18 4 6 10 6 17 -1 6 -6 8 -13
4 -17z m-255 -37 c15 -12 12 -17 -31 -55 l-48 -41 -24 25 c-22 24 -22 24 -3
39 22 17 44 19 44 5 0 -5 4 -10 10 -10 5 0 7 7 3 16 -3 9 0 20 8 25 18 11 21
11 41 -4z m204 -8 c3 -6 -1 -18 -10 -27 -14 -15 -17 -15 -30 3 -11 15 -11 22
-3 27 17 11 35 10 43 -3z"/>
<path d="M3223 1945 c0 -22 2 -30 4 -17 2 12 2 30 0 40 -3 9 -5 -1 -4 -23z"/>
<path d="M2700 1912 c0 -6 6 -9 14 -6 22 8 91 -14 111 -36 10 -11 21 -37 25
-58 l8 -37 1 33 c2 50 -50 100 -111 108 -32 5 -48 3 -48 -4z"/>
<path d="M3232 1865 c0 -16 2 -22 5 -12 2 9 2 23 0 30 -3 6 -5 -1 -5 -18z"/>
<path d="M2253 1799 c-43 -40 -51 -62 -33 -89 8 -11 9 -8 4 13 -6 24 0 35 37
73 54 55 49 57 -8 3z"/>
<path d="M3241 1804 c0 -11 3 -14 6 -6 3 7 2 16 -1 19 -3 4 -6 -2 -5 -13z"/>
<path d="M2400 1789 c0 -5 5 -7 10 -4 6 3 10 8 10 11 0 2 -4 4 -10 4 -5 0 -10
-5 -10 -11z"/>
<path d="M1427 1783 c-4 -3 -7 -15 -7 -25 0 -10 -3 -18 -7 -18 -5 0 -73 -43
-153 -95 -80 -52 -141 -95 -136 -95 18 0 291 178 334 218 l25 22 -25 0 c-14 0
-28 -3 -31 -7z"/>
<path d="M3251 1764 c0 -11 3 -14 6 -6 3 7 2 16 -1 19 -3 4 -6 -2 -5 -13z"/>
<path d="M2375 1704 c-19 -121 -32 -135 -78 -88 -18 18 -27 22 -27 12 0 -8 16
-23 35 -34 32 -17 36 -17 50 -3 9 9 20 44 25 80 10 68 5 96 -5 33z"/>
<path d="M2830 1693 c13 -18 26 -30 29 -28 3 3 -8 18 -23 33 l-29 27 23 -32z"/>
<path d="M2242 1630 c0 -19 2 -27 5 -17 2 9 2 25 0 35 -3 9 -5 1 -5 -18z"/>
<path d="M2875 1623 c34 -53 45 -67 45 -60 0 10 -51 87 -57 87 -3 0 3 -12 12
-27z"/>
<path d="M2630 1613 c19 -9 59 -28 88 -42 30 -14 74 -43 100 -65 25 -22 43
-34 40 -26 -7 22 -131 104 -191 126 -70 26 -79 28 -37 7z"/>
<path d="M2408 1550 c-3 -16 -1 -30 4 -30 4 0 8 14 8 30 0 17 -2 30 -4 30 -2
0 -6 -13 -8 -30z"/>
<path d="M2281 1565 c0 -5 6 -21 14 -35 8 -14 14 -20 14 -15 0 6 -6 21 -14 35
-8 14 -14 21 -14 15z"/>
<path d="M2920 1545 c0 -5 5 -17 10 -25 5 -8 10 -10 10 -5 0 6 -5 17 -10 25
-5 8 -10 11 -10 5z"/>
<path d="M1034 1528 c-3 -4 2 -5 10 -2 11 4 19 -2 25 -19 5 -13 18 -27 27 -31
15 -6 6 -14 -41 -45 -89 -55 -95 -57 -42 -9 78 71 59 80 -56 28 -70 -31 -68
-18 2 25 34 20 61 39 61 42 0 2 -15 -4 -32 -15 -18 -11 -73 -41 -123 -67 -49
-27 -115 -64 -144 -83 l-55 -34 47 -45 c32 -30 47 -52 47 -70 0 -24 3 -25 34
-20 39 6 116 54 116 72 0 6 19 17 43 24 45 14 77 37 77 56 0 7 16 16 36 20 52
9 82 25 99 52 15 22 14 24 -10 33 -33 12 -35 12 -35 0 0 -5 9 -10 21 -10 12 0
19 -5 17 -12 -6 -16 -96 -60 -108 -53 -17 11 6 46 50 75 36 24 41 30 26 36 -9
4 -15 13 -12 20 3 8 -1 14 -10 14 -9 0 -14 6 -11 13 4 10 -4 14 -24 14 -17 0
-32 -4 -35 -9z m-1 -153 c-5 -16 -33 -21 -33 -7 0 13 22 32 31 26 5 -2 6 -11
2 -19z m-286 -43 c-10 -10 -17 -24 -17 -30 0 -16 -15 -15 -29 2 -9 11 -5 18
21 34 37 24 49 21 25 -6z m262 15 c8 -11 7 -17 -7 -29 -19 -15 -67 -38 -82
-38 -23 0 -7 40 23 58 39 25 51 26 66 9z m-178 -47 c-22 -19 -41 -26 -41 -15
0 5 51 34 60 34 3 0 -6 -9 -19 -19z m69 -5 c0 -8 -7 -15 -15 -15 -16 0 -20 12
-8 23 11 12 23 8 23 -8z m-10 -47 c0 -10 -62 -46 -93 -54 -26 -6 -28 -4 -25
17 4 33 74 72 100 56 10 -7 18 -15 18 -19z"/>
<path d="M2312 1475 c0 -16 2 -22 5 -12 2 9 2 23 0 30 -3 6 -5 -1 -5 -18z"/>
<path d="M2942 1475 c0 -16 2 -22 5 -12 2 9 2 23 0 30 -3 6 -5 -1 -5 -18z"/>
<path d="M2616 1449 c21 -25 59 -70 83 -99 52 -62 137 -106 221 -114 l55 -6
-66 14 c-92 20 -161 57 -206 113 -21 26 -58 67 -82 92 l-44 46 39 -46z"/>
<path d="M2424 1402 c13 -27 32 -54 40 -61 10 -9 17 -32 18 -65 l2 -51 3 47
c4 41 -1 54 -31 99 -20 28 -36 57 -36 65 0 8 -5 14 -10 14 -6 0 1 -22 14 -48z"/>
<path d="M2317 1381 c-4 -35 -5 -66 -3 -68 6 -7 19 103 14 119 -3 7 -8 -16
-11 -51z"/>
<path d="M2951 1375 c0 -38 3 -76 7 -82 4 -7 6 18 4 55 -5 96 -10 108 -11 27z"/>
<path d="M2343 1325 c0 -27 2 -38 4 -22 2 15 2 37 0 50 -2 12 -4 0 -4 -28z"/>
<path d="M2412 1285 c0 -16 2 -22 5 -12 2 9 2 23 0 30 -3 6 -5 -1 -5 -18z"/>
<path d="M610 1258 c-30 -17 -112 -67 -183 -112 -168 -107 -207 -130 -327
-199 -56 -32 -100 -61 -97 -63 4 -5 220 114 282 156 45 30 290 185 348 219 20
13 37 25 37 27 0 6 -1 6 -60 -28z"/>
<path d="M2278 1157 c-15 -72 -36 -179 -48 -237 -11 -58 -27 -136 -36 -175 -8
-38 -12 -85 -9 -102 l6 -33 -73 1 c-100 1 -197 20 -233 45 -17 12 -59 34 -95
49 -165 69 -212 80 -251 59 -15 -7 -30 -10 -34 -6 -4 4 -6 0 -3 -8 2 -8 25
-31 51 -50 47 -35 47 -36 41 -79 -5 -33 -4 -42 5 -36 8 4 11 28 10 63 -2 31 1
57 7 59 14 5 10 -122 -5 -141 -7 -9 -40 -25 -72 -37 -33 -12 -58 -23 -56 -25
6 -7 83 18 113 37 35 21 114 132 114 161 0 23 11 23 60 -2 22 -11 45 -20 52
-20 8 0 29 -13 48 -28 95 -78 453 -66 573 20 15 11 40 24 55 28 18 6 21 9 8 9
-10 1 -43 -13 -72 -30 -30 -17 -58 -29 -62 -27 -15 5 7 66 26 71 13 4 11 5 -5
6 -21 1 -23 6 -23 57 0 30 5 97 11 147 l12 93 27 -26 c21 -20 26 -32 23 -57
-3 -17 -1 -39 4 -48 7 -11 9 -1 9 37 -1 42 -6 57 -23 71 -13 10 -28 37 -34 60
-6 23 -16 48 -22 56 -7 8 -15 39 -18 70 l-6 56 -1 -50 c-1 -28 5 -63 13 -79 8
-15 15 -37 15 -47 0 -23 -18 -35 -26 -16 -8 21 -55 32 -66 15 -11 -15 -6 32
12 135 21 122 6 90 -22 -46z m87 -239 c-5 -51 -10 -87 -13 -80 -6 17 8 185 15
178 3 -3 2 -47 -2 -98z m-102 0 c-2 -24 -13 -80 -24 -124 -22 -90 -19 -108 20
-128 23 -13 30 -12 59 6 l32 20 0 -25 c0 -28 -41 -45 -106 -43 -39 1 -39 1
-38 41 1 63 47 295 59 295 1 0 1 -19 -2 -42z m-663 -168 c0 -5 -7 -16 -16 -24
-12 -12 -20 -13 -35 -6 -25 14 -24 29 4 39 23 9 47 4 47 -9z m92 -16 c12 -8 9
-49 -3 -61 -6 -6 -16 -21 -23 -34 -28 -56 -51 -12 -24 46 10 21 9 28 -2 35 -7
4 -19 6 -27 3 -14 -5 -18 9 -6 21 7 7 70 -1 85 -10z"/>
<path d="M2420 1247 c0 -13 51 -109 56 -105 2 3 -9 29 -26 59 -16 30 -30 50
-30 46z"/>
<path d="M3322 1230 c0 -14 2 -19 5 -12 2 6 2 18 0 25 -3 6 -5 1 -5 -13z"/>
<path d="M665 1217 c-22 -13 -80 -50 -130 -82 -49 -33 -170 -105 -270 -162
-280 -159 -265 -149 -265 -178 0 -15 3 -24 8 -22 4 2 46 28 95 57 95 57 118
86 36 44 -28 -14 -52 -24 -54 -22 -2 2 75 47 171 102 144 81 250 146 441 273
31 20 10 14 -32 -10z"/>
<path d="M2861 1116 c-2 -40 24 -99 58 -135 20 -20 27 -26 15 -12 -40 51 -44
58 -58 112 -8 30 -15 46 -15 35z"/>
<path d="M2439 1106 c13 -16 51 -41 51 -33 0 2 -15 14 -32 27 -21 15 -28 17
-19 6z"/>
<path d="M2527 1072 c7 -69 11 -74 12 -15 1 28 -3 54 -8 57 -5 3 -6 -16 -4
-42z"/>
<path d="M2990 1093 c0 -6 5 -15 11 -19 6 -3 9 -15 6 -25 -6 -22 8 -35 16 -15
3 7 -3 26 -14 42 -10 16 -19 24 -19 17z"/>
<path d="M3352 1065 c0 -16 2 -22 5 -12 2 9 2 23 0 30 -3 6 -5 -1 -5 -18z"/>
<path d="M1152 1018 c-14 -14 -16 -54 -3 -63 6 -3 9 7 8 22 -1 19 3 28 13 28
24 0 24 -35 0 -60 -23 -25 -25 -85 -2 -93 8 -2 12 10 12 42 0 24 5 48 10 51 6
4 10 -6 10 -22 0 -38 10 -73 21 -73 5 0 9 30 10 68 0 74 13 64 24 -20 8 -63
25 -61 25 3 0 31 4 48 10 44 6 -3 10 -22 10 -41 0 -20 5 -44 10 -55 10 -18 7
-19 -73 -19 -77 0 -85 2 -95 23 -10 22 -11 22 -11 -5 l-1 -28 145 0 c80 0 148
1 153 3 4 1 6 25 4 54 -2 29 2 61 7 72 6 11 8 27 5 35 -7 18 -44 22 -44 6 0
-7 -8 -6 -22 1 -13 7 -40 14 -62 16 -22 2 -45 8 -53 14 -9 9 -14 7 -19 -5 -8
-20 -50 -21 -58 -1 -7 18 -18 19 -34 3z m122 -24 c7 -19 -2 -37 -15 -29 -12 8
-12 45 0 45 5 0 12 -7 15 -16z m49 -27 c-3 -5 -9 -3 -14 4 -4 7 -5 17 -2 22 3
5 9 3 14 -4 4 -7 5 -17 2 -22z m46 9 c9 -10 7 -16 -5 -26 -12 -11 -14 -24 -9
-62 5 -32 3 -48 -4 -48 -7 0 -11 27 -11 75 0 74 7 88 29 61z m66 3 c4 -6 -2
-21 -14 -33 -21 -22 -27 -59 -15 -91 5 -13 8 -14 15 -3 7 10 9 9 9 -5 0 -13
-6 -18 -22 -15 -20 3 -23 10 -26 55 -2 39 2 60 15 78 20 27 29 30 38 14z"/>
<path d="M3342 1010 c0 -14 2 -19 5 -12 2 6 2 18 0 25 -3 6 -5 1 -5 -13z"/>
<path d="M3022 955 c0 -16 2 -22 5 -12 2 9 2 23 0 30 -3 6 -5 -1 -5 -18z"/>
<path d="M3332 950 c0 -14 2 -19 5 -12 2 6 2 18 0 25 -3 6 -5 1 -5 -13z"/>
<path d="M1055 906 c-13 -13 -27 -37 -31 -52 -8 -33 10 -133 27 -148 9 -8 10
-6 4 9 -4 11 -12 42 -17 68 -11 60 13 120 50 125 22 3 23 2 9 -20 -27 -42 -30
-94 -8 -143 18 -41 18 -45 3 -46 -14 0 -13 -2 3 -9 11 -5 29 -9 39 -9 19 -1
19 0 -1 22 -48 53 -57 117 -23 180 25 47 25 47 -5 47 -14 0 -37 -11 -50 -24z"/>
<path d="M3322 895 c0 -16 2 -22 5 -12 2 9 2 23 0 30 -3 6 -5 -1 -5 -18z"/>
<path d="M3011 853 c0 -34 2 -64 7 -66 4 -3 6 16 4 41 -5 80 -9 90 -11 25z"/>
<path d="M1458 833 c2 -32 8 -62 14 -68 7 -7 9 2 4 30 -3 22 -6 52 -6 68 0 15
-3 27 -7 27 -5 0 -6 -26 -5 -57z"/>
<path d="M2441 854 c0 -11 3 -14 6 -6 3 7 2 16 -1 19 -3 4 -6 -2 -5 -13z"/>
<path d="M2750 846 c0 -2 8 -10 18 -17 15 -13 16 -12 3 4 -13 16 -21 21 -21
13z"/>
<path d="M3312 825 c0 -16 2 -22 5 -12 2 9 2 23 0 30 -3 6 -5 -1 -5 -18z"/>
<path d="M2798 813 c7 -3 16 -2 19 1 4 3 -2 6 -13 5 -11 0 -14 -3 -6 -6z"/>
<path d="M2848 803 c12 -2 32 -2 45 0 12 2 2 4 -23 4 -25 0 -35 -2 -22 -4z"/>
<path d="M2928 793 c8 -3 23 -19 34 -37 17 -27 19 -28 13 -6 -7 26 -32 51 -49
49 -6 0 -5 -3 2 -6z"/>
<path d="M2440 781 c0 -10 29 -36 34 -30 1 2 -6 12 -16 22 -10 9 -18 13 -18 8z"/>
<path d="M3302 770 c0 -14 2 -19 5 -12 2 6 2 18 0 25 -3 6 -5 1 -5 -13z"/>
<path d="M1185 720 c-16 -16 -26 -32 -23 -35 3 -3 11 1 18 10 17 20 50 2 50
-29 0 -32 26 -54 43 -36 10 10 9 12 -5 7 -14 -5 -18 -1 -18 16 0 12 -4 29 -10
37 -5 9 -5 19 1 27 12 14 4 33 -15 33 -7 0 -25 -13 -41 -30z"/>
<path d="M3292 705 c0 -16 2 -22 5 -12 2 9 2 23 0 30 -3 6 -5 -1 -5 -18z"/>
<path d="M2730 671 c117 -39 253 -101 266 -122 11 -19 54 82 53 126 l-1 40 -8
-45 c-9 -48 -26 -100 -34 -100 -3 0 -38 16 -78 36 -76 37 -270 104 -297 103
-9 0 36 -17 99 -38z"/>
<path d="M3386 657 c3 -10 9 -15 12 -12 3 3 0 11 -7 18 -10 9 -11 8 -5 -6z"/>
<path d="M1310 619 c-11 -8 -8 -9 15 -4 25 5 38 -1 73 -30 l41 -36 -35 -31
c-31 -27 -35 -36 -32 -72 3 -35 6 -41 28 -44 25 -3 90 -30 90 -37 0 -2 -5 -16
-10 -31 -14 -36 0 -51 58 -58 99 -13 201 11 313 74 50 28 201 40 227 18 20
-18 77 -48 89 -48 4 1 -14 13 -42 28 l-50 27 283 6 c155 3 285 9 288 12 7 7
-609 0 -711 -8 -56 -5 -78 -12 -112 -36 -65 -46 -117 -60 -226 -62 -107 -2
-123 6 -106 50 5 14 9 28 9 32 0 9 -65 39 -95 43 -15 2 -21 12 -23 40 -3 33 1
40 37 66 l40 29 -32 30 c-53 51 -87 63 -117 42z"/>
<path d="M3401 625 c0 -5 6 -21 14 -35 8 -14 14 -20 14 -15 0 6 -6 21 -14 35
-8 14 -14 21 -14 15z"/>
<path d="M3281 544 c0 -11 3 -14 6 -6 3 7 2 16 -1 19 -3 4 -6 -2 -5 -13z"/>
<path d="M1447 513 c-12 -11 -8 -23 8 -23 8 0 15 7 15 15 0 16 -12 20 -23 8z"/>
<path d="M2990 491 c-17 -43 -36 -55 -94 -62 l-51 -6 45 -2 c27 0 55 5 68 15
22 15 57 72 49 80 -2 3 -10 -9 -17 -25z"/>
<path d="M3241 474 c0 -11 3 -14 6 -6 3 7 2 16 -1 19 -3 4 -6 -2 -5 -13z"/>
<path d="M2816 435 c4 -8 1 -15 -7 -15 -7 0 -9 -3 -6 -6 9 -9 38 16 31 27 -9
15 -24 10 -18 -6z"/>
<path d="M3242 425 c0 -16 2 -22 5 -12 2 9 2 23 0 30 -3 6 -5 -1 -5 -18z"/>
<path d="M3381 414 c0 -11 3 -14 6 -6 3 7 2 16 -1 19 -3 4 -6 -2 -5 -13z"/>
<path d="M2768 413 c7 -3 16 -2 19 1 4 3 -2 6 -13 5 -11 0 -14 -3 -6 -6z"/>
<path d="M1513 403 c9 -2 25 -2 35 0 9 3 1 5 -18 5 -19 0 -27 -2 -17 -5z"/>
<path d="M2688 403 c12 -2 30 -2 40 0 9 3 -1 5 -23 4 -22 0 -30 -2 -17 -4z"/>
<path d="M3366 373 c-6 -14 -5 -15 5 -6 7 7 10 15 7 18 -3 3 -9 -2 -12 -12z"/>
<path d="M3530 365 c0 -5 5 -17 10 -25 5 -8 10 -10 10 -5 0 6 -5 17 -10 25 -5
8 -10 11 -10 5z"/>
<path d="M3340 330 c-6 -11 -8 -20 -6 -20 3 0 10 9 16 20 6 11 8 20 6 20 -3 0
-10 -9 -16 -20z"/>
<path d="M3490 333 c0 -12 5 -25 11 -28 17 -11 18 -2 4 25 -14 24 -14 24 -15
3z"/>
<path d="M1528 333 c7 -3 16 -2 19 1 4 3 -2 6 -13 5 -11 0 -14 -3 -6 -6z"/>
<path d="M2482 220 c0 -63 3 -123 6 -133 4 -9 6 33 4 95 -4 157 -9 176 -10 38z"/>
<path d="M2581 304 c0 -11 3 -14 6 -6 3 7 2 16 -1 19 -3 4 -6 -2 -5 -13z"/>
<path d="M2240 304 c-12 -4 -16 -26 -17 -109 -2 -68 1 -106 8 -111 7 -4 9 0 5
12 -3 11 -2 59 2 109 7 84 8 90 32 96 19 5 20 7 5 7 -11 0 -27 -2 -35 -4z"/>
<path d="M1845 285 c65 -51 357 -265 362 -265 5 0 -91 76 -244 191 -64 49
-170 115 -118 74z"/>
<path d="M2309 238 c-1 -35 -1 -80 0 -100 3 -37 1 -38 -31 -39 -33 -2 -33 -2
-3 -6 16 -3 41 -13 56 -24 38 -26 130 -69 152 -69 11 0 17 7 16 23 -1 16 -2
18 -6 5 -6 -24 -20 -23 -84 9 -89 43 -89 43 -89 155 0 98 0 99 23 93 17 -5 19
-4 7 4 -32 23 -40 12 -41 -51z"/>
<path d="M3294 268 l-29 -33 33 29 c17 17 32 31 32 33 0 8 -8 1 -36 -29z"/>
<path d="M2371 276 c10 -9 89 -46 89 -41 0 5 -75 45 -86 45 -4 0 -5 -2 -3 -4z"/>
<path d="M2600 246 c0 -11 30 -66 36 -66 2 0 -3 15 -12 33 -19 36 -24 44 -24
33z"/>
<path d="M3492 225 c0 -16 2 -22 5 -12 2 9 2 23 0 30 -3 6 -5 -1 -5 -18z"/>
<path d="M3482 145 c0 -16 2 -22 5 -12 2 9 2 23 0 30 -3 6 -5 -1 -5 -18z"/>
<path d="M3611 114 c0 -11 3 -14 6 -6 3 7 2 16 -1 19 -3 4 -6 -2 -5 -13z"/>
<path d="M3471 84 c0 -11 3 -14 6 -6 3 7 2 16 -1 19 -3 4 -6 -2 -5 -13z"/>
<path d="M3621 85 c0 -5 9 -28 20 -50 10 -22 16 -29 13 -15 -7 28 -33 80 -33
65z"/>
</g>
</svg>
